<?xml version="1.0" encoding="UTF-8"?>
<svg xmlns="http://www.w3.org/2000/svg" viewBox="77.01 79.2 925.98 330.2" fill="currentColor" preserveAspectRatio="xMinYMid meet">
  <rect x="411.36" y="86.52" width="48.67" height="44.16"/>
  <path d="M804.73,86.52h-48.67v156.22h-44.17v-21.5h-159.03v-90.56h159.03v-44.16h-207.7v156.22h-44.17v-67.89h-48.67v67.89h-120.43c-24.25,0-43.92-19.66-43.92-43.92v-74.88c.56,0,1.11-.03,1.67-.03,23.73,0,41.38,6.76,52.95,20.28,11.56,13.52,17.35,30.94,17.35,52.27v24.78h48.21v-23.43c0-36.34-10.29-65.03-30.86-86.06-20.58-21.02-49.79-31.54-87.64-31.54s-68.94,10.89-91.47,32.67c-22.53,21.78-33.79,53.24-33.79,94.4v73.89c0,41.16,11.26,72.62,33.79,94.4,22.53,21.78,53.02,32.67,91.47,32.67s67.06-10.51,87.64-31.54c20.57-21.02,30.86-49.71,30.86-86.06v-25.22h-48.21v26.57c0,21.03-5.79,38.38-17.35,52.04-11.57,13.67-29.22,20.5-52.95,20.5-.57,0-1.11-.02-1.67-.03v-74.88c0-24.25,19.66-43.92,43.92-43.92h120.43v156.22h48.67v-156.22h44.17v156.22h207.7v-44.15h-159.03v-92.37h5.61v.02h107.03v-.02h46.39v-19.7h44.17v156.22h200.51v-44.15h-151.84v-112.07h151.84v-2.96h-151.84V86.52ZM192.37,145.77c12.64-13.61,29.86-20.87,51.69-21.76v74.81c0,24.25-19.66,43.92-43.92,43.92h-28.05v-36.37c0-25.83,6.76-46.03,20.28-60.6ZM192.37,342.45c-13.51-14.71-20.28-34.84-20.28-60.38v-36.37h28.05c24.25,0,43.92,19.66,43.92,43.92v74.81c-21.83-.9-39.05-8.22-51.69-21.98Z"/>
  <polygon points="899.44 120.52 905.86 120.52 905.86 92.35 915.77 92.35 915.77 86.52 889.53 86.52 889.53 92.35 899.44 92.35 899.44 120.52"/>
  <polygon points="938.79 116.15 937.92 116.15 932.04 86.52 920.14 86.52 920.14 120.52 926.36 120.52 926.36 91.23 927.23 91.23 933.06 120.52 943.65 120.52 949.48 91.23 950.35 91.23 950.35 120.52 956.57 120.52 956.57 86.52 944.67 86.52 938.79 116.15"/>
  <rect x="998.45" y="86.52" width="4.54" height="315.4"/>
  <rect x="77.01" y="86.52" width="4.54" height="315.4"/>
</svg>
